<svg xmlns="http://www.w3.org/2000/svg" xmlns:xlink="http://www.w3.org/1999/xlink" version="1.1" x="0px" y="0px" viewBox="950 1450 100 125" enable-background="new 950 1450 100 100" xml:space="preserve"><g><path d="M1036.1,1487.5c0,0-0.1,0.7-0.3,1.8l-43.4,5c-4.9-2.7-10.1-4.8-15.5-6.4c-6.1-1.8-12.4-2.8-18.8-3c-0.4,0-0.6,0.3-0.7,0.6   c0,0.4,0.3,0.6,0.6,0.7c0.4,0,0.8,0,1.2,0.1v24.4c0.2,0.1,0.4,0.2,0.6,0.3v-24.7c5.6,0.3,11.2,1.3,16.6,2.8c3.5,1,6.9,2.3,10.3,3.8   c-0.9,0.4-1.5,1.2-1.7,2.2l-23.2,2.7c0,5.5,4.1,9.8,10.8,12.7c1.1-0.4,2.4-0.8,4.4-0.8c5.8,0,5.8,2.7,11.6,2.7   c5.8,0,5.8-2.7,11.6-2.7c5.8,0,5.8,2.7,11.6,2.7c5.7,0,5.8-2.7,11.4-2.7l0,0c0,0,0.1,0,0.1,0c0.4,0,0.8,0,1.1,0c0,0,0.1,0,0.1,0   c0.3,0,0.6,0.1,0.9,0.1c4.4-2.3,10.2-6.2,14-11.7c1.9-2.8,3.3-6.1,3.7-9.8c0.1-0.6,0.1-1.2,0.1-1.9L1036.1,1487.5z M1016.8,1496   l-45.4,5c0,0,0,0-0.1,0c-0.3,0-0.5-0.2-0.5-0.5c0-0.3,0.2-0.5,0.5-0.6l45.4-5c0.3,0,0.5,0.2,0.6,0.5   C1017.3,1495.7,1017.1,1496,1016.8,1496z M1029.6,1494.6l-9.2,1c0,0,0,0-0.1,0c-0.3,0-0.5-0.2-0.5-0.5c0-0.3,0.2-0.5,0.5-0.6l9.2-1   c0.3,0,0.5,0.2,0.6,0.5C1030.1,1494.3,1029.9,1494.5,1029.6,1494.6z M1040.7,1493.1c-0.6,1.8-1.6,3.6-2.7,5.4   c-0.1,0.1-0.3,0.2-0.4,0.2c-0.1,0-0.2,0-0.3-0.1c-0.2-0.2-0.3-0.5-0.1-0.7c1.1-1.6,2-3.4,2.6-5.1c0.1-0.3,0.4-0.4,0.6-0.3   C1040.6,1492.6,1040.8,1492.8,1040.7,1493.1z M1041.2,1491.4c-0.1,0.2-0.3,0.4-0.5,0.4c0,0-0.1,0-0.1,0c-0.3-0.1-0.4-0.3-0.4-0.6   c0.2-0.9,0.4-1.8,0.5-2.8c0-0.3,0.3-0.5,0.6-0.5c0.3,0,0.5,0.3,0.5,0.6C1041.6,1489.4,1041.4,1490.4,1041.2,1491.4z"/><path d="M959.6,1514.1c0.1,0,0.2-0.1,0.3-0.2l-0.5,0C959.4,1514,959.5,1514.1,959.6,1514.1z"/></g><g><path d="M1031,1517c-2.8,0-4.3-0.7-5.6-1.4c-1.3-0.6-2.4-1.2-4.7-1.2c-2.3,0-3.4,0.5-4.7,1.2c-1.3,0.6-2.8,1.4-5.6,1.4   c-2.8,0-4.3-0.7-5.6-1.4c-1.3-0.6-2.4-1.2-4.7-1.2c-2.3,0-3.4,0.5-4.7,1.2c-1.3,0.6-2.8,1.4-5.6,1.4c-2.8,0-4.3-0.7-5.6-1.4   c-1.3-0.6-2.4-1.2-4.7-1.2c-2.3,0-3.4,0.5-4.7,1.2c-1.3,0.6-2.8,1.4-5.6,1.4c-2.8,0-4.3-0.7-5.6-1.4c-1.3-0.6-2.4-1.2-4.7-1.2   c-0.6,0-1-0.4-1-1s0.4-1,1-1c2.8,0,4.3,0.7,5.6,1.4c1.3,0.6,2.4,1.2,4.7,1.2c2.3,0,3.4-0.5,4.7-1.2c1.3-0.6,2.8-1.4,5.6-1.4   s4.3,0.7,5.6,1.4c1.3,0.6,2.4,1.2,4.7,1.2c2.3,0,3.4-0.5,4.7-1.2c1.3-0.6,2.8-1.4,5.6-1.4c2.8,0,4.3,0.7,5.6,1.4   c1.3,0.6,2.4,1.2,4.7,1.2c2.3,0,3.4-0.5,4.7-1.2c1.3-0.6,2.8-1.4,5.6-1.4c2.8,0,4.3,0.7,5.6,1.4c1.3,0.6,2.4,1.2,4.7,1.2   c2.3,0,3.4-0.5,4.7-1.2c1.3-0.6,2.8-1.4,5.6-1.4c0.5,0,1,0.4,1,1s-0.4,1-1,1c-2.3,0-3.4,0.5-4.7,1.2   C1035.3,1516.2,1033.8,1517,1031,1517z"/></g></svg>